<svg width="25" height="24" viewBox="0 0 25 24" fill="none" xmlns="http://www.w3.org/2000/svg">
<path d="M11.375 15H11.324C11.0723 15 10.8309 14.9 10.653 14.722C10.475 14.5441 10.375 14.3027 10.375 14.051C10.375 13.7858 10.2696 13.5314 10.0821 13.3439C9.89457 13.1564 9.64022 13.051 9.375 13.051C9.10978 13.051 8.85543 13.1564 8.66789 13.3439C8.48036 13.5314 8.375 13.7858 8.375 14.051C8.375 14.8331 8.6857 15.5832 9.23874 16.1363C9.79179 16.6893 10.5419 17 11.324 17H11.375V18C11.375 18.2652 11.4804 18.5196 11.6679 18.7071C11.8554 18.8946 12.1098 19 12.375 19C12.6402 19 12.8946 18.8946 13.0821 18.7071C13.2696 18.5196 13.375 18.2652 13.375 18V17C14.1706 17 14.9337 16.6839 15.4963 16.1213C16.0589 15.5587 16.375 14.7956 16.375 14C16.375 13.2044 16.0589 12.4413 15.4963 11.8787C14.9337 11.3161 14.1706 11 13.375 11V9H13.397C13.937 9 14.375 9.438 14.375 9.978C14.375 10.2432 14.4804 10.4976 14.6679 10.6851C14.8554 10.8726 15.1098 10.978 15.375 10.978C15.6402 10.978 15.8946 10.8726 16.0821 10.6851C16.2696 10.4976 16.375 10.2432 16.375 9.978C16.375 9.18819 16.0612 8.43072 15.5028 7.87224C14.9443 7.31375 14.1868 7 13.397 7H13.375V6C13.375 5.73478 13.2696 5.48043 13.0821 5.29289C12.8946 5.10536 12.6402 5 12.375 5C12.1098 5 11.8554 5.10536 11.6679 5.29289C11.4804 5.48043 11.375 5.73478 11.375 6V7C10.981 7 10.5909 7.0776 10.2269 7.22836C9.86297 7.37913 9.53226 7.6001 9.25368 7.87868C8.9751 8.15726 8.75413 8.48797 8.60336 8.85195C8.4526 9.21593 8.375 9.60603 8.375 10C8.375 10.394 8.4526 10.7841 8.60336 11.1481C8.75413 11.512 8.9751 11.8427 9.25368 12.1213C9.53226 12.3999 9.86297 12.6209 10.2269 12.7716C10.5909 12.9224 10.981 13 11.375 13V15ZM13.375 15V13C13.6402 13 13.8946 13.1054 14.0821 13.2929C14.2696 13.4804 14.375 13.7348 14.375 14C14.375 14.2652 14.2696 14.5196 14.0821 14.7071C13.8946 14.8946 13.6402 15 13.375 15ZM11.375 9V11C11.1098 11 10.8554 10.8946 10.6679 10.7071C10.4804 10.5196 10.375 10.2652 10.375 10C10.375 9.73478 10.4804 9.48043 10.6679 9.29289C10.8554 9.10536 11.1098 9 11.375 9ZM12.375 22C6.852 22 2.375 17.523 2.375 12C2.375 6.477 6.852 2 12.375 2C17.898 2 22.375 6.477 22.375 12C22.375 17.523 17.898 22 12.375 22Z" fill="#7F8895"/>
</svg>
