<svg width="25" height="24" viewBox="0 0 25 24" fill="none" xmlns="http://www.w3.org/2000/svg">
<path d="M22.625 9H2.625V7C2.625 6.46957 2.83571 5.96086 3.21079 5.58579C3.58586 5.21071 4.09457 5 4.625 5H20.625C21.1554 5 21.6641 5.21071 22.0392 5.58579C22.4143 5.96086 22.625 6.46957 22.625 7V9ZM22.625 12V17C22.625 17.5304 22.4143 18.0391 22.0392 18.4142C21.6641 18.7893 21.1554 19 20.625 19H4.625C4.09457 19 3.58586 18.7893 3.21079 18.4142C2.83571 18.0391 2.625 17.5304 2.625 17V12H22.625ZM6.625 14C6.35978 14 6.10543 14.1054 5.91789 14.2929C5.73036 14.4804 5.625 14.7348 5.625 15C5.625 15.2652 5.73036 15.5196 5.91789 15.7071C6.10543 15.8946 6.35978 16 6.625 16H7.625C7.89022 16 8.14457 15.8946 8.33211 15.7071C8.51964 15.5196 8.625 15.2652 8.625 15C8.625 14.7348 8.51964 14.4804 8.33211 14.2929C8.14457 14.1054 7.89022 14 7.625 14H6.625ZM11.625 14C11.3598 14 11.1054 14.1054 10.9179 14.2929C10.7304 14.4804 10.625 14.7348 10.625 15C10.625 15.2652 10.7304 15.5196 10.9179 15.7071C11.1054 15.8946 11.3598 16 11.625 16H16.625C16.8902 16 17.1446 15.8946 17.3321 15.7071C17.5196 15.5196 17.625 15.2652 17.625 15C17.625 14.7348 17.5196 14.4804 17.3321 14.2929C17.1446 14.1054 16.8902 14 16.625 14H11.625Z" fill="#7F8895"/>
</svg>
