<svg width="25" height="24" viewBox="0 0 25 24" fill="none" xmlns="http://www.w3.org/2000/svg">
<path d="M15.875 21.834V16.834C15.875 16.0384 15.5589 15.2753 14.9963 14.7127C14.4337 14.1501 13.6706 13.834 12.875 13.834C12.0794 13.834 11.3163 14.1501 10.7537 14.7127C10.1911 15.2753 9.875 16.0384 9.875 16.834V21.834H4.875C4.34457 21.834 3.83586 21.6233 3.46079 21.2482C3.08571 20.8731 2.875 20.3644 2.875 19.834V8.96601C2.875 8.62064 2.96443 8.28115 3.13459 7.9806C3.30476 7.68006 3.54985 7.4287 3.846 7.25101L11.846 2.45101C12.1568 2.26451 12.5125 2.16599 12.875 2.16599C13.2375 2.16599 13.5932 2.26451 13.904 2.45101L21.904 7.25101C22.2002 7.4287 22.4452 7.68006 22.6154 7.9806C22.7856 8.28115 22.875 8.62064 22.875 8.96601V19.834C22.875 20.3644 22.6643 20.8731 22.2892 21.2482C21.9141 21.6233 21.4054 21.834 20.875 21.834H15.875Z" fill="#08A075"/>
</svg>
