<svg width="14" height="14" viewBox="0 0 14 14" fill="none" xmlns="http://www.w3.org/2000/svg">
<path d="M10.138 7.47131C10.2001 7.40954 10.2494 7.3361 10.2831 7.25521C10.3167 7.17433 10.334 7.08759 10.334 6.99998C10.334 6.91237 10.3167 6.82563 10.2831 6.74474C10.2494 6.66386 10.2001 6.59042 10.138 6.52865L7.30934 3.69998C7.18361 3.57854 7.01521 3.51134 6.84041 3.51286C6.66561 3.51438 6.4984 3.5845 6.3748 3.7081C6.25119 3.83171 6.18108 3.99891 6.17956 4.17371C6.17804 4.34851 6.24524 4.51691 6.36668 4.64265L8.05734 6.33331H4.33334C4.15653 6.33331 3.98696 6.40355 3.86194 6.52858C3.73691 6.6536 3.66668 6.82317 3.66668 6.99998C3.66668 7.17679 3.73691 7.34636 3.86194 7.47138C3.98696 7.59641 4.15653 7.66665 4.33334 7.66665H8.05734L6.36668 9.35731C6.24524 9.48305 6.17804 9.65145 6.17956 9.82625C6.18108 10.001 6.25119 10.1683 6.3748 10.2919C6.4984 10.4155 6.66561 10.4856 6.84041 10.4871C7.01521 10.4886 7.18361 10.4214 7.30934 10.3L10.138 7.47131ZM3.00001 0.333313H11C11.7073 0.333313 12.3855 0.614265 12.8856 1.11436C13.3857 1.61446 13.6667 2.29274 13.6667 2.99998V11C13.6667 11.7072 13.3857 12.3855 12.8856 12.8856C12.3855 13.3857 11.7073 13.6666 11 13.6666H3.00001C2.29277 13.6666 1.61449 13.3857 1.11439 12.8856C0.614295 12.3855 0.333344 11.7072 0.333344 11V2.99998C0.333344 2.29274 0.614295 1.61446 1.11439 1.11436C1.61449 0.614265 2.29277 0.333313 3.00001 0.333313V0.333313Z" fill="#007554"/>
</svg>
