<svg width="25" height="24" viewBox="0 0 25 24" fill="none" xmlns="http://www.w3.org/2000/svg">
<path opacity="0.4" d="M20.1003 12.6049H22.0664V11.2033C22.0664 9.18843 20.4215 7.54346 18.4066 7.54346H7.23256C5.21772 7.54346 3.57275 9.18843 3.57275 11.2033V15.4568C4.24437 14.9215 5.09118 14.6003 6.00613 14.6003C8.15724 14.6003 9.89954 16.3425 9.89954 18.4937C9.89954 19.2237 9.69513 19.9147 9.33499 20.4988C9.13059 20.8492 8.86778 21.1606 8.56604 21.4137H18.4066C20.4215 21.4137 22.0664 19.7687 22.0664 17.7539V16.5956H20.2171C19.1658 16.5956 18.2022 15.8267 18.1146 14.7754C18.0562 14.1622 18.2898 13.588 18.6986 13.1889C19.0588 12.819 19.5552 12.6049 20.1003 12.6049Z" fill="#08A075"/>
<path d="M15.5936 3.84484V7.54356H7.23256C5.21772 7.54356 3.57275 9.18854 3.57275 11.2034V7.63119C3.57275 6.4729 4.2833 5.44111 5.36372 5.0323L13.0921 2.11225C14.2991 1.66451 15.5936 2.55029 15.5936 3.84484Z" fill="#08A075"/>
<path d="M23.0989 13.5978V15.603C23.0989 16.1384 22.6706 16.5763 22.1255 16.5958H20.2178C19.1665 16.5958 18.2029 15.8268 18.1153 14.7756C18.0569 14.1624 18.2905 13.5881 18.6993 13.1891C19.0595 12.8192 19.5559 12.6051 20.101 12.6051H22.1255C22.6706 12.6245 23.0989 13.0625 23.0989 13.5978Z" fill="#08A075"/>
<path d="M14.7662 12.4102H7.95279C7.55372 12.4102 7.22278 12.0793 7.22278 11.6802C7.22278 11.2811 7.55372 10.9502 7.95279 10.9502H14.7662C15.1653 10.9502 15.4963 11.2811 15.4963 11.6802C15.4963 12.0793 15.1653 12.4102 14.7662 12.4102Z" fill="#08A075"/>
<path d="M8.75916 15.7407C8.11219 15.0938 7.28627 14.7221 6.43282 14.6257C5.29719 14.495 4.12026 14.8735 3.25305 15.7407C2.73685 16.2569 2.39273 16.8901 2.23443 17.5577C1.91094 18.831 2.24819 20.242 3.25305 21.2468C3.9482 21.942 4.83605 22.3205 5.75144 22.3687C6.14375 22.4031 6.54983 22.3687 6.94214 22.2655C7.60976 22.1072 8.24296 21.763 8.75916 21.2468C10.2802 19.7258 10.2802 17.2618 8.75916 15.7407ZM5.29029 17.0347C5.29029 16.6355 5.62066 16.3051 6.01985 16.3051C6.42593 16.312 6.74941 16.6355 6.75629 17.0416L6.74943 17.7642L7.44459 17.7573C7.85066 17.7642 8.17415 18.0877 8.18103 18.4938C8.17414 18.8998 7.85066 19.2233 7.44458 19.2302L6.74943 19.2233L6.7563 19.946C6.74942 20.3521 6.42593 20.6756 6.01986 20.6825C5.82026 20.6756 5.64134 20.593 5.51057 20.4622C5.3798 20.3314 5.29718 20.1525 5.2903 19.9529L5.29032 19.2233L4.53324 19.2233C4.32676 19.2233 4.14779 19.1407 4.01702 19.01C3.88625 18.8792 3.80368 18.7002 3.80368 18.4938C3.80368 18.0946 4.13404 17.7642 4.53324 17.7642L5.29031 17.7642L5.29029 17.0347Z" fill="#08A075"/>
</svg>
