<svg width="56" height="56" viewBox="0 0 56 56" fill="none" xmlns="http://www.w3.org/2000/svg">
<rect width="56" height="56" rx="16.8" fill="white" fill-opacity="0.2"/>
<path opacity="0.4" d="M37.7332 22.56V29.4267C37.7332 33.5333 35.3866 35.2933 31.8666 35.2933H20.1466C19.5466 35.2933 18.9732 35.24 18.4399 35.12C18.1066 35.0667 17.7866 34.9734 17.4932 34.8667C15.4932 34.12 14.2799 32.3867 14.2799 29.4267V22.56C14.2799 18.4533 16.6266 16.6934 20.1466 16.6934H31.8666C34.8532 16.6934 36.9999 17.96 37.5732 20.8534C37.6666 21.3867 37.7332 21.9333 37.7332 22.56Z" fill="white"/>
<path d="M41.7333 26.56V33.4267C41.7333 37.5334 39.3866 39.2933 35.8666 39.2933H24.1466C23.1599 39.2933 22.2666 39.1601 21.4933 38.8667C19.9066 38.2801 18.8266 37.0667 18.4399 35.1201C18.9733 35.2401 19.5466 35.2933 20.1466 35.2933H31.8666C35.3866 35.2933 37.7333 33.5334 37.7333 29.4267V22.56C37.7333 21.9334 37.68 21.3734 37.5733 20.8534C40.1066 21.3867 41.7333 23.1734 41.7333 26.56Z" fill="white"/>
<path d="M26 29.52C27.944 29.52 29.52 27.944 29.52 26C29.52 24.056 27.944 22.48 26 22.48C24.056 22.48 22.48 24.056 22.48 26C22.48 27.944 24.056 29.52 26 29.52Z" fill="white"/>
<path d="M18.3734 22.9999C17.8267 22.9999 17.3734 23.4533 17.3734 23.9999V27.9999C17.3734 28.5466 17.8267 28.9999 18.3734 28.9999C18.9201 28.9999 19.3734 28.5466 19.3734 27.9999V23.9999C19.3734 23.4533 18.9334 22.9999 18.3734 22.9999Z" fill="white"/>
<path d="M33.6133 22.9999C33.0666 22.9999 32.6133 23.4533 32.6133 23.9999V27.9999C32.6133 28.5466 33.0666 28.9999 33.6133 28.9999C34.1599 28.9999 34.6133 28.5466 34.6133 27.9999V23.9999C34.6133 23.4533 34.1733 22.9999 33.6133 22.9999Z" fill="white"/>
</svg>
