<svg width="6" height="10" viewBox="0 0 6 10" fill="none" xmlns="http://www.w3.org/2000/svg">
<path d="M3.98264 4.99998L0.529172 1.52353C0.402086 1.39107 0.331765 1.21367 0.333355 1.02952C0.334944 0.845379 0.408317 0.66923 0.537671 0.539016C0.667025 0.408801 0.842009 0.33494 1.02494 0.33334C1.20786 0.331739 1.3841 0.402529 1.51568 0.530461L5.46239 4.50344C5.59319 4.63515 5.66666 4.81375 5.66666 4.99998C5.66666 5.18621 5.59319 5.36481 5.46239 5.49651L1.51568 9.4695C1.3841 9.59743 1.20786 9.66822 1.02494 9.66662C0.842009 9.66502 0.667025 9.59116 0.537671 9.46094C0.408317 9.33073 0.334944 9.15458 0.333355 8.97044C0.331765 8.78629 0.402086 8.60889 0.529172 8.47643L3.98264 4.99998Z" fill="#00122C"/>
</svg>
