<svg width="12" height="12" viewBox="0 0 12 12" fill="none" xmlns="http://www.w3.org/2000/svg">
<path d="M7.57025 6.00058L11.4945 2.07527C11.6005 1.97286 11.685 1.85037 11.7432 1.71493C11.8014 1.5795 11.832 1.43383 11.8333 1.28643C11.8346 1.13903 11.8065 0.992856 11.7507 0.856429C11.6949 0.720002 11.6124 0.596058 11.5082 0.491827C11.404 0.387597 11.28 0.305169 11.1436 0.249352C11.0072 0.193535 10.861 0.165448 10.7136 0.166729C10.5662 0.16801 10.4205 0.198633 10.2851 0.256812C10.1497 0.314992 10.0272 0.399561 9.92477 0.505587L5.99946 4.42979L2.07527 0.505587C1.97286 0.399561 1.85037 0.314992 1.71493 0.256812C1.5795 0.198633 1.43383 0.16801 1.28643 0.166729C1.13903 0.165448 0.992856 0.193535 0.856429 0.249352C0.720002 0.305169 0.596058 0.387597 0.491827 0.491827C0.387597 0.596058 0.305169 0.720002 0.249352 0.856429C0.193535 0.992856 0.165448 1.13903 0.166729 1.28643C0.16801 1.43383 0.198633 1.5795 0.256812 1.71493C0.314992 1.85037 0.399561 1.97286 0.505587 2.07527L4.42979 5.99946L0.505587 9.92477C0.399561 10.0272 0.314992 10.1497 0.256812 10.2851C0.198633 10.4205 0.16801 10.5662 0.166729 10.7136C0.165448 10.861 0.193535 11.0072 0.249352 11.1436C0.305169 11.28 0.387597 11.404 0.491827 11.5082C0.596058 11.6124 0.720002 11.6949 0.856429 11.7507C0.992856 11.8065 1.13903 11.8346 1.28643 11.8333C1.43383 11.832 1.5795 11.8014 1.71493 11.7432C1.85037 11.685 1.97286 11.6005 2.07527 11.4945L5.99946 7.57025L9.92477 11.4945C10.0272 11.6005 10.1497 11.685 10.2851 11.7432C10.4205 11.8014 10.5662 11.832 10.7136 11.8333C10.861 11.8346 11.0072 11.8065 11.1436 11.7507C11.28 11.6949 11.404 11.6124 11.5082 11.5082C11.6124 11.404 11.6949 11.28 11.7507 11.1436C11.8065 11.0072 11.8346 10.861 11.8333 10.7136C11.832 10.5662 11.8014 10.4205 11.7432 10.2851C11.685 10.1497 11.6005 10.0272 11.4945 9.92477L7.57025 5.99946V6.00058Z" fill="#00122C"/>
</svg>
