<svg width="24" height="24" viewBox="0 0 24 24" fill="none" xmlns="http://www.w3.org/2000/svg">
<path opacity="0.8" d="M12.9 2.52L12.87 2.59L9.96995 9.32H7.11995C6.43995 9.32 5.79995 9.45 5.19995 9.71L6.94995 5.53L6.98995 5.44L7.04995 5.28C7.07995 5.21 7.09995 5.15 7.12995 5.1C8.43995 2.07 9.91995 1.38 12.9 2.52Z" fill="#08A075"/>
<path d="M18.29 9.51999C17.84 9.38999 17.37 9.31999 16.88 9.31999H9.96997L12.87 2.58999L12.9 2.51999C13.04 2.56999 13.19 2.63999 13.34 2.68999L15.55 3.61999C16.78 4.12999 17.64 4.65999 18.17 5.29999C18.26 5.41999 18.34 5.52999 18.42 5.65999C18.51 5.79999 18.58 5.93999 18.62 6.08999C18.66 6.17999 18.69 6.25999 18.71 6.34999C18.97 7.19999 18.81 8.22999 18.29 9.51999Z" fill="#08A075"/>
<path opacity="0.4" d="M21.76 14.2V16.15C21.76 16.35 21.75 16.55 21.74 16.74C21.55 20.24 19.6 22 15.9 22H8.09999C7.84999 22 7.61999 21.98 7.38999 21.95C4.20999 21.74 2.50999 20.04 2.28999 16.86C2.25999 16.62 2.23999 16.39 2.23999 16.15V14.2C2.23999 12.19 3.45999 10.46 5.19999 9.71001C5.79999 9.45001 6.43999 9.32001 7.11999 9.32001H16.88C17.37 9.32001 17.84 9.39001 18.29 9.52001C20.29 10.13 21.76 11.99 21.76 14.2Z" fill="#08A075"/>
<path opacity="0.6" d="M6.94999 5.53L5.19999 9.71C3.45999 10.46 2.23999 12.19 2.23999 14.2V11.27C2.23999 8.43 4.25999 6.06 6.94999 5.53Z" fill="#08A075"/>
<path opacity="0.6" d="M21.76 11.27V14.2C21.76 11.99 20.29 10.13 18.29 9.52C18.81 8.23 18.97 7.2 18.71 6.35C18.69 6.26 18.66 6.18 18.62 6.09C20.49 7.06 21.76 9.03 21.76 11.27Z" fill="#08A075"/>
<path d="M14.5 16.75H9.5C9.09 16.75 8.75 16.41 8.75 16C8.75 15.59 9.09 15.25 9.5 15.25H14.5C14.91 15.25 15.25 15.59 15.25 16C15.25 16.41 14.91 16.75 14.5 16.75Z" fill="#08A075"/>
</svg>
