<svg width="18" height="16" viewBox="0 0 18 16" fill="none" xmlns="http://www.w3.org/2000/svg">
<path d="M4.7319 9.2114L9.43394 13.9134C9.64542 14.139 9.76086 14.4379 9.75584 14.747C9.75082 15.0562 9.62573 15.3512 9.40704 15.5697C9.18835 15.7883 8.89322 15.9131 8.58409 15.9179C8.27497 15.9227 7.9761 15.8071 7.75073 15.5955L1.0167 8.86262C0.905776 8.75232 0.817748 8.62119 0.757679 8.47676C0.69761 8.33232 0.666687 8.17744 0.666687 8.02101C0.666687 7.86459 0.69761 7.7097 0.757679 7.56527C0.817748 7.42084 0.905776 7.2897 1.0167 7.17941L7.75073 0.445382C7.86054 0.331687 7.99189 0.241001 8.13712 0.178614C8.28236 0.116227 8.43856 0.0833886 8.59662 0.0820152C8.75468 0.0806417 8.91143 0.110761 9.05772 0.170614C9.20402 0.230468 9.33692 0.318858 9.44869 0.430627C9.56046 0.542396 9.64885 0.675305 9.70871 0.821599C9.76856 0.967893 9.79868 1.12464 9.79731 1.2827C9.79593 1.44076 9.76309 1.59696 9.70071 1.7422C9.63832 1.88743 9.54763 2.01878 9.43394 2.12859L4.7319 6.83062H16.143C16.4587 6.83062 16.7615 6.95604 16.9847 7.17928C17.2079 7.40252 17.3334 7.7053 17.3334 8.02101C17.3334 8.33672 17.2079 8.6395 16.9847 8.86274C16.7615 9.08598 16.4587 9.2114 16.143 9.2114H4.7319Z" fill="#00122C"/>
</svg>
