<svg width="21" height="20" viewBox="0 0 21 20" fill="none" xmlns="http://www.w3.org/2000/svg">
<path d="M17.6466 4.24987L9.71027 12.1862C9.94562 12.5231 10.1457 12.887 10.3064 13.2727L12.2866 18.0407L17.6466 4.24883V4.24987ZM8.31378 10.7897L16.2511 2.85234L2.45927 8.21232L7.22727 10.1935C7.60998 10.3523 7.9743 10.5521 8.31378 10.7897ZM20.3587 2.63877L14.1102 18.7146C13.7163 19.7306 12.579 20.2521 11.5712 19.8799C11.3258 19.7891 11.1017 19.6487 10.9131 19.4672C10.7245 19.2858 10.5755 19.0673 10.4754 18.8255L8.49521 14.0575C8.10991 13.1283 7.37162 12.39 6.44245 12.0047L1.67342 10.0245C0.68436 9.61296 0.232338 8.46943 0.665698 7.46793C0.771957 7.22322 0.925601 7.00196 1.11777 6.81691C1.30994 6.63185 1.53684 6.48667 1.78538 6.38971L17.8612 0.139169C18.2105 -0.00159714 18.5935 -0.0365302 18.9625 0.0387177C19.3315 0.113966 19.6702 0.296072 19.9365 0.562372C20.2028 0.828672 20.3849 1.16741 20.4602 1.53642C20.5354 1.90543 20.5005 2.28842 20.3597 2.63773L20.3587 2.63877Z" fill="#404D61"/>
</svg>
