<svg width="14" height="8" viewBox="0 0 14 8" fill="none" xmlns="http://www.w3.org/2000/svg">
<path d="M7 5.48206L12.1955 0.318462C12.2923 0.21883 12.4081 0.139361 12.5361 0.0846901C12.6642 0.0300196 12.8019 0.00124299 12.9413 3.9386e-05C13.0807 -0.00116422 13.2189 0.0252293 13.3479 0.0776798C13.4768 0.13013 13.594 0.207588 13.6926 0.305532C13.7911 0.403476 13.8691 0.519946 13.9218 0.648145C13.9746 0.776345 14.0012 0.913706 14 1.05222C13.9988 1.19072 13.9698 1.32761 13.9148 1.45487C13.8598 1.58214 13.7798 1.69725 13.6796 1.79348L7.74206 7.69458C7.54523 7.89014 7.27831 8 7 8C6.72169 8 6.45477 7.89014 6.25794 7.69458L0.320427 1.79348C0.22018 1.69725 0.14022 1.58214 0.0852126 1.45487C0.0302048 1.32761 0.00125066 1.19072 3.9629e-05 1.05222C-0.0011714 0.913706 0.0253849 0.776345 0.0781591 0.648145C0.130933 0.519946 0.208868 0.403476 0.307417 0.305532C0.405966 0.207588 0.523154 0.13013 0.652145 0.0776798C0.781135 0.0252293 0.919344 -0.00116422 1.05871 3.9386e-05C1.19807 0.00124299 1.3358 0.0300196 1.46385 0.0846901C1.59191 0.139361 1.70772 0.21883 1.80454 0.318462L7 5.48206Z" fill="#00122C"/>
</svg>
