<svg width="25" height="24" viewBox="0 0 25 24" fill="none" xmlns="http://www.w3.org/2000/svg">
<path d="M22.125 10.163C21.799 10.3463 21.5277 10.613 21.3389 10.9359C21.1502 11.2587 21.0508 11.626 21.051 12C21.051 12.789 21.484 13.476 22.125 13.837L21.408 16.243C21.0204 16.1763 20.622 16.2196 20.2577 16.3678C19.8935 16.516 19.578 16.7633 19.3472 17.0816C19.1163 17.3999 18.9792 17.7766 18.9514 18.1688C18.9236 18.5611 19.0063 18.9533 19.19 19.301L17.128 20.903C16.855 20.6792 16.5301 20.5277 16.1832 20.4624C15.8363 20.3971 15.4785 20.4202 15.1429 20.5295C14.8072 20.6387 14.5044 20.8307 14.2624 21.0877C14.0204 21.3447 13.8469 21.6584 13.758 22L10.468 21.992C10.3781 21.652 10.2044 21.34 9.96278 21.0845C9.72118 20.829 9.41939 20.6381 9.08499 20.5292C8.75059 20.4204 8.39424 20.3972 8.04853 20.4616C7.70282 20.526 7.37877 20.676 7.106 20.898L5.046 19.283C5.22457 18.9367 5.30355 18.5477 5.27414 18.1592C5.24473 17.7708 5.10809 17.3981 4.87942 17.0826C4.65076 16.7672 4.33904 16.5214 3.97898 16.3727C3.61891 16.2239 3.22462 16.178 2.84 16.24L2.125 13.825C2.44495 13.6398 2.71051 13.3737 2.895 13.0533C3.07949 12.733 3.1764 12.3697 3.176 12C3.176 11.22 2.755 10.54 2.125 10.175L2.84 7.76C3.2247 7.82225 3.61912 7.77648 3.97935 7.6278C4.33957 7.47912 4.65145 7.23336 4.88025 6.9179C5.10905 6.60243 5.24578 6.22964 5.27522 5.84106C5.30466 5.45247 5.22566 5.06334 5.047 4.717L7.105 3.102C7.37777 3.32395 7.70182 3.47399 8.04753 3.53841C8.39324 3.60283 8.74959 3.57957 9.08399 3.47075C9.41839 3.36194 9.72018 3.17104 9.96178 2.91551C10.2034 2.65998 10.3771 2.34797 10.467 2.008L13.759 2C13.8479 2.34161 14.0214 2.65535 14.2634 2.91233C14.5054 3.16931 14.8082 3.36127 15.1439 3.47053C15.4795 3.5798 15.8373 3.60285 16.1842 3.53758C16.5311 3.4723 16.856 3.32079 17.129 3.097L19.189 4.7C19.0053 5.04769 18.9226 5.43989 18.9504 5.83215C18.9782 6.22442 19.1153 6.60106 19.3462 6.91938C19.577 7.23771 19.8925 7.485 20.2567 7.63322C20.621 7.78144 21.0194 7.82467 21.407 7.758L22.125 10.162V10.163ZM12.125 16C13.1859 16 14.2033 15.5786 14.9534 14.8284C15.7036 14.0783 16.125 13.0609 16.125 12C16.125 10.9391 15.7036 9.92172 14.9534 9.17157C14.2033 8.42143 13.1859 8 12.125 8C11.0641 8 10.0467 8.42143 9.29657 9.17157C8.54643 9.92172 8.125 10.9391 8.125 12C8.125 13.0609 8.54643 14.0783 9.29657 14.8284C10.0467 15.5786 11.0641 16 12.125 16Z" fill="#7F8895"/>
</svg>
