<svg width="14" height="14" viewBox="0 0 14 14" fill="none" xmlns="http://www.w3.org/2000/svg">
<path d="M1.83465 5.66668C1.72275 6.10228 1.6663 6.55027 1.66665 7.00001C1.66665 7.46001 1.72531 7.90668 1.83465 8.33334H3.73331C3.64343 7.44673 3.64343 6.55329 3.73331 5.66668H1.83465ZM2.37998 4.33334H3.94398C4.12131 3.52201 4.37731 2.79534 4.69131 2.19068C3.72343 2.65696 2.91812 3.4035 2.37998 4.33334ZM12.1653 5.66668H10.2666C10.3565 6.55329 10.3565 7.44673 10.2666 8.33334H12.1653C12.2746 7.90668 12.3333 7.46001 12.3333 7.00001C12.3333 6.54001 12.2746 6.09334 12.1653 5.66668ZM11.62 4.33334C11.0818 3.4035 10.2765 2.65696 9.30865 2.19068C9.62331 2.79534 9.87865 3.52201 10.056 4.33334H11.62ZM5.07465 5.66668C5.0247 6.10936 4.99977 6.55452 4.99998 7.00001C4.99998 7.45668 5.02531 7.90334 5.07465 8.33334H8.92531C9.02572 7.44729 9.02572 6.55273 8.92531 5.66668H5.07465ZM5.31331 4.33334H8.68665C8.56532 3.83221 8.39031 3.34562 8.16465 2.88201C7.74598 2.04534 7.29798 1.66668 6.99998 1.66668C6.70131 1.66668 6.25398 2.04534 5.83531 2.88201C5.62531 3.30334 5.44865 3.79334 5.31331 4.33334ZM2.37998 9.66668C2.91812 10.5965 3.72343 11.3431 4.69131 11.8093C4.37665 11.2047 4.12131 10.478 3.94398 9.66668H2.37998ZM11.62 9.66668H10.056C9.87865 10.478 9.62265 11.2047 9.30865 11.8093C10.2765 11.3431 11.0818 10.5965 11.62 9.66668ZM5.31331 9.66668C5.44865 10.2067 5.62531 10.6967 5.83531 11.118C6.25398 11.9547 6.70198 12.3333 6.99998 12.3333C7.29865 12.3333 7.74598 11.9547 8.16465 11.118C8.37465 10.6967 8.55131 10.2067 8.68665 9.66668H5.31331ZM6.99998 13.6667C3.31798 13.6667 0.333313 10.682 0.333313 7.00001C0.333313 3.31801 3.31798 0.333344 6.99998 0.333344C10.682 0.333344 13.6666 3.31801 13.6666 7.00001C13.6666 10.682 10.682 13.6667 6.99998 13.6667Z" fill="#007554"/>
</svg>
