<svg width="204" height="204" viewBox="0 0 204 204" fill="none" xmlns="http://www.w3.org/2000/svg">
<path d="M48.0215 86.842C48.0215 86.842 37.2598 54.9988 74.7968 58.8852C112.334 62.7717 94.399 48.6773 108.583 39.9308C122.768 31.1843 164.561 58.3954 147.076 84.6409C129.591 110.886 175.019 86.878 184.495 126.346C190.343 150.702 175.834 168.629 163.865 178.791" stroke="#CCE2DC" stroke-width="1.11588"/>
<path fill-rule="evenodd" clip-rule="evenodd" d="M138.489 112.176C154.717 117.408 164.705 132.026 167.526 148.361C168.699 155.201 168.787 162.376 167.306 169.185C166.468 173.008 165.256 177.308 162.444 180.181C161.264 181.39 159.709 182.165 158.033 182.38C158.443 181.552 158.657 180.642 158.659 179.719C158.671 176.32 155.934 173.55 152.536 173.521L148.629 173.499L142.781 173.469C142.608 173.447 142.424 173.447 142.242 173.447H138.305L134.989 173.433L116.96 173.337C116.728 173.337 116.486 173.353 116.246 173.375L116.283 173.381C116.424 173.401 116.572 173.422 116.706 173.455C116.551 173.455 116.398 173.468 116.238 173.482L116.216 173.483C119.269 173.859 121.585 176.416 121.656 179.491V179.607C121.66 179.682 121.66 179.758 121.656 179.833C121.475 182.828 119.176 185.263 116.196 185.615C116.353 185.635 116.511 185.647 116.67 185.651C116.523 185.684 116.374 185.708 116.224 185.725L116.252 185.727C116.484 185.748 116.707 185.768 116.94 185.768H116.714C113.513 185.768 111.544 187.736 111.544 190.135C111.546 191.294 112.008 192.405 112.827 193.226C113.621 194.021 114.715 194.509 116.714 194.509H92.0717L87.7575 183.427L72.5356 144.383H39.025C35.6179 144.385 32.4024 142.808 30.3188 140.112C28.2351 137.416 27.5188 133.907 28.3792 130.611L36.474 107.982C36.5203 108.111 36.5702 108.274 36.628 108.462C37.2714 110.558 38.8994 115.861 47.5815 114.751C48.945 120.958 50.9562 127.006 54.049 132.554C55.1345 134.507 56.526 136.644 58.6051 137.664C58.8172 137.767 59.0363 137.854 59.2609 137.926C61.346 138.601 63.913 138.05 65.8882 137.402C70.6783 135.836 75.5544 133.953 79.9286 131.438C83.7151 129.275 88.2213 125.758 87.7255 121.078V121.012C87.497 118.378 85.718 116.135 83.2053 115.313C81.9203 117.424 80.383 119.371 78.6271 121.11C77.2193 119.736 76.0838 118.108 75.2805 116.312C74.7064 115.024 74.2526 113.686 73.925 112.314C83.3772 109.965 95.1725 107.902 107.711 107.8C106.232 109.163 105.18 111.116 105.488 113.18C105.758 115.011 107.252 116.708 108.791 117.672C111.348 119.275 114.761 119.143 117.516 118.124C120.214 117.132 122.546 115.229 124.237 112.912C125.035 111.792 125.566 110.505 125.79 109.149V109.127C130.093 109.826 134.338 110.845 138.489 112.176ZM112.795 153.579C112.795 153.579 118.579 154.049 121.976 148.821C125.39 143.601 122.45 138.154 122.45 138.154C122.45 138.154 112.787 129.981 111.134 129.041C109.481 128.102 100.926 123.347 95.4383 124.543C89.9505 125.739 95.3584 130.267 95.6503 130.325C95.9421 130.383 102.014 131.944 102.014 131.944L99.9146 133.052C99.9146 133.052 98.1373 134.057 97.6914 137.09C97.6496 137.375 97.5977 137.684 97.5425 138.013C97.0099 141.186 96.1625 146.234 100.89 149.803C106.108 153.741 106.634 150.703 106.888 148.703C106.888 148.703 110.076 150.065 111.196 152.056C112.316 154.047 112.795 153.579 112.795 153.579Z" fill="#353642"/>
<path d="M47.5737 114.755C47.5737 114.755 52.1499 114.199 53.8632 110.932L52.3698 119.311C52.3698 119.311 70.5745 113.114 73.9132 112.314C73.9132 112.314 74.9888 119.249 79.271 121.11L83.6893 115.493C83.6893 115.493 89.2291 116.892 87.7137 124.441C86.1983 131.99 65.2387 138.299 61.6841 138.154C58.1295 138.008 54.303 135.82 50.3846 124.067L47.5737 114.755Z" fill="#353642"/>
<path d="M55.0284 96.0904C56.188 97.9776 57.3535 99.8609 58.557 101.72C59.2987 102.866 60.6502 104.499 59.2128 105.697C58.745 106.055 58.1799 106.264 57.5914 106.296C56.6678 106.378 55.6982 106.156 55.1364 105.363L52.3375 100.725C51.1807 98.8063 48.7447 98.0981 46.7397 99.0972" stroke="black" stroke-width="1.11588"/>
<path d="M65.6143 102.2C66.346 103.939 65.8502 105.061 64.9946 105.625C63.5952 106.542 61.7219 106.102 60.7303 104.763L55.0386 96.1004" stroke="black" stroke-width="1.11588"/>
<path d="M59.8466 93.5714C61.9178 96.0904 64.5308 100.769 65.9762 102.722C67.4216 104.675 69.6567 103.497 69.6567 103.497C71.472 102.52 71.1641 100.898 70.3704 98.9293C68.4152 94.0952 65.6243 90.8805 62.5116 88.7733C52.8654 82.248 42.9694 87.062 40.0246 98.3255L28.3792 130.611C27.5188 133.907 28.2351 137.416 30.3188 140.112C32.4024 142.808 35.6179 144.385 39.025 144.383H72.5356L92.0777 194.511" stroke="black" stroke-width="1.11588"/>
<path d="M71.8118 96.7122C74.2108 95.8805 74.1009 92.054 70.6963 90.7625C66.9358 89.3351 60.2584 87.3159 58.5811 86.8121C58.5707 86.8041 58.5582 86.7992 58.5451 86.7981C58.4272 86.7621 58.3452 86.7322 58.2812 86.7182L58.1873 86.6882" stroke="black" stroke-width="1.11588"/>
<path d="M107.258 134.971C105.159 132.448 99.4128 131.018 95.6623 130.327C94.3674 130.083 93.3893 129.013 93.2633 127.702C93.2198 127.271 93.2696 126.836 93.4092 126.426C93.8693 125.131 95.155 124.319 96.522 124.459C102.919 125.107 109.517 127.12 114.397 131.456C114.397 131.456 138.053 149.509 140.878 151.266C142.044 151.974 143.131 151.138 142.342 150.027L142.094 149.603C140.703 147.217 139.058 144.988 137.186 142.958" stroke="black" stroke-width="1.11588"/>
<path d="M107.695 107.798C77.9434 108.046 52.3696 119.309 52.3696 119.309L54.9226 104.999" stroke="black" stroke-width="1.11588"/>
<path d="M153.905 185.681C153.905 185.681 150.665 184.947 149.803 187.542C148.941 190.137 148.042 194.265 154.237 194.509C160.433 194.753 156.794 193.535 156.436 191.53C156.078 189.525 153.905 185.681 153.905 185.681Z" fill="#353642"/>
<path d="M104.399 138.263C104.399 138.263 100.902 135.613 97.7535 138.299C97.621 138.416 97.5053 138.551 97.4097 138.699" stroke="black" stroke-width="1.11588"/>
<g opacity="0.77">
<path d="M60.7184 104.753C61.718 106.094 63.5893 106.532 64.9827 105.613C65.8284 105.053 66.3242 103.937 65.6105 102.214C65.7404 102.404 65.8584 102.572 65.9743 102.726C67.4177 104.687 69.6548 103.505 69.6548 103.505C71.4701 102.528 71.1642 100.906 70.3705 98.9352C69.5939 96.9828 68.575 95.1358 67.3378 93.4374C68.1474 92.6797 69.1091 91.914 70.1226 92.2499C71.2162 92.6138 71.5221 93.9852 71.646 95.1288C71.704 95.6605 71.762 96.1863 71.82 96.7181L72.6956 104.547C72.9875 107.146 73.2794 109.783 73.9131 112.32C74.2407 113.692 74.6945 115.03 75.2686 116.318C76.072 118.114 77.2074 119.742 78.6152 121.116C80.3711 119.377 81.9085 117.43 83.1934 115.319C85.7061 116.141 87.4851 118.384 87.7136 121.018V121.084C88.2094 125.765 83.7032 129.281 79.9167 131.444C75.5425 133.959 70.6664 135.842 65.8763 137.408C63.9011 138.056 61.3342 138.607 59.249 137.932C59.0244 137.86 58.8053 137.773 58.5933 137.67C56.5141 136.65 55.1226 134.513 54.0371 132.56C48.8392 123.214 46.68 112.482 45.5425 101.854C47.8176 101.54 50.0847 101.19 52.3238 100.709C52.3238 100.709 52.3238 100.725 52.3378 100.731L54.9187 105.011L55.1306 105.367C55.6904 106.166 56.66 106.38 57.5857 106.3C58.1742 106.271 58.7395 106.062 59.205 105.701C60.6404 104.501 59.293 102.874 58.5493 101.728" fill="white"/>
<path d="M60.7184 104.753C61.718 106.094 63.5893 106.532 64.9827 105.613C65.8284 105.053 66.3242 103.937 65.6105 102.214C65.7404 102.404 65.8584 102.572 65.9743 102.726C67.4177 104.687 69.6548 103.505 69.6548 103.505C71.4701 102.528 71.1642 100.906 70.3705 98.9352C69.5939 96.9828 68.575 95.1358 67.3378 93.4374C68.1474 92.6797 69.1091 91.914 70.1226 92.2499C71.2162 92.6138 71.5221 93.9852 71.646 95.1288C71.704 95.6605 71.762 96.1863 71.82 96.7181L72.6956 104.547C72.9875 107.146 73.2794 109.783 73.9131 112.32C74.2407 113.692 74.6945 115.03 75.2686 116.318C76.072 118.114 77.2074 119.742 78.6152 121.116C80.3711 119.377 81.9085 117.43 83.1934 115.319C85.7061 116.141 87.4851 118.384 87.7136 121.018V121.084C88.2094 125.765 83.7032 129.281 79.9167 131.444C75.5425 133.959 70.6664 135.842 65.8763 137.408C63.9011 138.056 61.3342 138.607 59.249 137.932C59.0244 137.86 58.8053 137.773 58.5933 137.67C56.5141 136.65 55.1226 134.513 54.0371 132.56C48.8392 123.214 46.68 112.482 45.5425 101.854C47.8176 101.54 50.0847 101.19 52.3238 100.709C52.3238 100.709 52.3238 100.725 52.3378 100.731L54.9187 105.011L55.1306 105.367C55.6904 106.166 56.66 106.38 57.5857 106.3C58.1742 106.271 58.7395 106.062 59.205 105.701C60.6404 104.501 59.293 102.874 58.5493 101.728" fill="#08A075"/>
<path d="M61.3322 105.387C62.2178 106.586 63.7312 106.434 64.9827 105.613C65.7384 105.113 66.3582 105.259 65.7204 103.717C65.8384 103.885 65.8544 103.317 65.9583 103.443C67.2478 105.195 65.9743 102.72 65.9743 102.72C67.7736 104.993 71.69 102.852 70.9723 101.094C70.2126 99.2011 69.4129 96.4022 68.3993 95.0028C69.199 94.2471 69.0451 94.359 70.0627 94.9608C70.617 95.317 70.9716 95.9131 71.0203 96.5702C71.1023 97.3319 71.1842 98.0616 71.2662 98.8053L72.0459 105.802C72.3078 108.128 72.5677 110.477 73.1334 112.74C73.426 113.963 73.8316 115.157 74.345 116.306C75.0607 117.888 77.3598 120.521 78.6153 121.726C80.1766 120.177 82.0479 117.328 83.1934 115.435C85.3925 116.11 85.2966 118.214 85.4525 120.511V120.571C85.8963 124.747 81.874 127.884 78.5033 129.817C74.5969 132.062 70.2446 133.741 65.9683 135.141C64.205 135.72 61.9139 136.22 60.0527 135.609C59.8519 135.545 59.6561 135.467 59.4669 135.375C57.6117 134.463 56.3682 132.558 55.3985 130.812C51.1542 123.19 49.185 114.535 48.1015 105.858C47.9362 104.509 48.8698 103.271 50.2126 103.06C51.4301 102.86 52.6436 102.66 53.8492 102.392L53.8832 102.408L56.1862 106.228C56.688 106.938 56.77 106.382 57.5957 106.31C58.1175 106.264 59.1291 106.162 59.5329 105.824C60.8144 104.757 60.0907 104.315 59.4269 103.293" fill="#08A075"/>
</g>
<path d="M103.977 142.122C103.977 142.122 97.3378 139.939 97.2378 143.609" stroke="black" stroke-width="1.11588"/>
<path opacity="0.54" d="M44.5467 179.513L31.526 146.154C31.199 144.846 31.493 143.461 32.3229 142.398C33.1528 141.335 34.426 140.714 35.7743 140.715H87.4936C89.8841 140.714 91.9632 142.353 92.5215 144.677L106.776 178.028C107.088 179.331 106.786 180.706 105.956 181.758C105.126 182.811 103.86 183.425 102.52 183.425H49.5627C47.1911 183.427 45.1229 181.814 44.5467 179.513Z" fill="white"/>
<path d="M106.138 147.75C106.138 147.75 107.216 148.737 106.806 150.149C106.502 151.194 105.463 151.854 104.433 151.496C101.154 150.363 98.2015 148.437 97.4818 145.165C97.1416 143.508 97.0681 141.807 97.2639 140.127C97.4218 138.569 97.6517 136.888 98.1755 135.407C98.9752 133.132 101.424 131.546 103.801 132.642" stroke="black" stroke-width="1.11588"/>
<path d="M44.5467 179.513L31.526 146.154C31.199 144.846 31.493 143.461 32.3229 142.398C33.1528 141.335 34.426 140.714 35.7743 140.715H87.4936C89.8841 140.714 91.9632 142.353 92.5215 144.677L106.776 178.028C107.088 179.331 106.786 180.706 105.956 181.758C105.126 182.811 103.86 183.425 102.52 183.425H49.5627C47.1911 183.427 45.1229 181.814 44.5467 179.513Z" fill="#08A075"/>
<path fill-rule="evenodd" clip-rule="evenodd" d="M44.5467 179.513L31.526 146.154C31.199 144.846 31.493 143.461 32.3229 142.398C33.1528 141.335 34.426 140.714 35.7743 140.715H87.4936C89.8841 140.714 91.9632 142.353 92.5215 144.677L106.776 178.028C107.088 179.331 106.786 180.706 105.956 181.758C105.126 182.811 103.86 183.425 102.52 183.425H49.5627C47.1911 183.427 45.1229 181.814 44.5467 179.513V179.513Z" stroke="black" stroke-width="1.11588" stroke-linecap="square" stroke-linejoin="round"/>
<path d="M46.4521 178.17L34.4389 147.382C34.138 146.175 34.4096 144.897 35.1754 143.917C35.9411 142.937 37.1156 142.364 38.3594 142.364H86.0723C88.2774 142.363 90.1954 143.874 90.7104 146.018L103.863 176.788C104.151 177.991 103.872 179.259 103.106 180.23C102.34 181.201 101.171 181.768 99.9347 181.768H51.0783C48.894 181.77 46.9879 180.287 46.4521 178.17Z" fill="#08A075"/>
<path d="M148.565 173.339L157.714 194.509" stroke="black" stroke-width="1.11588"/>
<path d="M191.964 194.509H12.0359" stroke="black" stroke-width="1.11588"/>
<path d="M106.872 98.9632C105.388 100.429 103.173 100.427 101.912 99.0712" stroke="black" stroke-width="1.11588"/>
<path d="M67.3376 93.4315C68.1473 92.6738 69.1089 91.9081 70.1225 92.2439C71.2161 92.6078 71.522 93.9792 71.6459 95.1228C71.9964 98.2655 72.3463 101.405 72.6955 104.541C73.1393 108.539 73.6071 112.634 75.2685 116.308C76.0719 118.104 77.2073 119.732 78.6151 121.106" stroke="black" stroke-width="1.11588"/>
<path d="M87.7137 121.082V121.016C87.4852 118.382 85.7063 116.139 83.1936 115.317C81.9086 117.428 80.3712 119.375 78.6154 121.114C74.0118 125.692 68.0981 128.723 61.6942 129.789C62.002 131.014 62.6358 132.13 63.0736 133.309C63.5114 134.489 63.7293 135.854 63.1976 136.992C62.5258 138.443 60.5986 138.254 59.2591 137.932C59.2451 137.932 59.2371 137.932 59.2231 137.932" stroke="black" stroke-width="1.11588"/>
<path d="M52.3277 100.707C50.0886 101.188 47.8215 101.538 45.5464 101.852C46.6839 112.48 48.8351 123.212 54.041 132.558C55.1266 134.511 56.518 136.648 58.5972 137.668C58.8092 137.771 59.0283 137.858 59.2529 137.93C61.3381 138.615 63.905 138.054 65.8803 137.406C70.6783 135.838 75.5464 133.957 79.9206 131.442C83.6971 129.277 88.2033 125.762 87.7175 121.082C87.6705 120.567 87.5652 120.059 87.4036 119.567" stroke="black" stroke-width="1.11588"/>
<path d="M89.7688 79.507C90.4565 82.3756 92.8983 84.4852 95.8364 84.7489C95.9553 84.1718 96.2134 83.6324 96.5881 83.1775C98.1874 81.2923 98.8692 84.8289 103.985 82.2899C111.074 78.7633 113.765 80.7865 113.765 80.7865C114.001 80.9624 113.965 82.5858 114.005 82.8817C114.205 84.567 114.385 86.2443 114.583 87.9276C114.703 88.9552 114.821 89.9748 114.933 90.9944C115.029 90.8209 115.136 90.6533 115.253 90.4926C115.898 88.2075 117.052 85.5086 119.539 86.6702C120.042 86.9157 120.481 87.2767 120.818 87.7237C122.468 89.8909 121.218 91.984 119.493 93.5334C119.06 94.014 118.577 94.4464 118.051 94.8229C118.335 95.4107 119.495 97.7437 119.495 97.7517C119.615 97.9876 123.667 93.4015 123.969 92.9017C124.42 91.6773 124.662 90.3858 124.685 89.0812C124.751 83.7173 122.568 77.4738 118.223 74.3971C117.146 73.6354 117.49 72.9017 117.424 71.8661C117.414 71.7515 117.335 71.6545 117.225 71.6221C117.115 71.5898 116.996 71.6287 116.926 71.7201C115.564 73.2875 112.194 73.1316 112.194 73.1316C100.495 70.2007 96.5621 75.4027 94.201 76.3303C93.2377 76.6953 92.1772 76.7129 91.2022 76.3803C91.0852 77.0381 90.6134 77.577 89.9767 77.7797L90.0367 78.3215C90.0876 78.7358 89.9929 79.1549 89.7688 79.507H89.7688Z" fill="#08A075"/>
<path d="M95.8443 84.7569C92.9062 84.4931 90.4644 82.3835 89.7767 79.515C89.6454 78.9783 89.5625 78.431 89.5288 77.8796L89.6208 77.8696C89.7465 77.8602 89.8703 77.8333 89.9886 77.7897C90.6253 77.5869 91.0972 77.0481 91.2141 76.3902C91.2507 76.2113 91.2582 76.0277 91.2361 75.8464L90.9362 73.1995C90.9362 73.1995 93.0514 74.7729 95.3985 73.8532C97.7455 72.9336 101.686 67.7317 113.391 70.6545C113.391 70.6545 116.034 70.8105 117.39 69.2431C117.459 69.1517 117.578 69.1127 117.689 69.1451C117.799 69.1774 117.878 69.2744 117.887 69.389C117.957 70.4266 118.341 71.1603 119.421 71.92C123.765 74.9988 125.948 81.2403 125.88 86.6041C125.86 88.8292 125.121 91.0264 123.979 92.9116C123.677 93.4114 119.625 97.9976 119.505 97.7617C119.505 97.7617 118.345 95.4206 118.061 94.8328L117.993 94.7029L118.123 94.6169C118.606 94.2893 119.067 93.9307 119.503 93.5434C121.226 91.994 122.478 89.9008 120.828 87.7337C120.491 87.2866 120.052 86.9256 119.549 86.6801C117.054 85.5186 115.908 88.2175 115.263 90.5026C115.137 90.9393 115.06 91.3885 115.033 91.842C115.003 91.5622 114.973 91.2923 114.943 91.0124C114.831 89.9928 114.713 88.9732 114.593 87.9456C114.393 86.2623 114.205 84.5849 114.015 82.8996C113.985 82.6117 114.015 80.9804 113.775 80.8045C113.775 80.8045 111.082 78.7813 103.995 82.3079C98.8791 84.8468 98.1973 81.3083 96.598 83.1955C96.2233 83.6503 95.9652 84.1897 95.8463 84.7669C95.8097 84.9522 95.7863 85.14 95.7763 85.3286C95.7725 85.3532 95.7725 85.3781 95.7763 85.4026C95.7523 85.8165 95.7443 86.2283 95.7343 86.6321C95.6963 90.5286 96.1242 94.5989 97.6536 98.2175C99.5128 102.604 104.433 106.93 109.549 104.885C111.148 104.243 112.582 103.209 113.893 102.112" stroke="black" stroke-width="1.11588"/>
<ellipse cx="98.9724" cy="93.1452" rx="0.971611" ry="1.17553" transform="rotate(-18.5 98.9724 93.1452)" fill="black"/>
<ellipse cx="106.584" cy="92.902" rx="0.971611" ry="1.17553" transform="rotate(-18.5 106.584 92.902)" fill="black"/>
<path d="M104.047 95.3347C104.047 95.3347 101.514 96.7722 101.36 95.2808C101.312 94.8209 100.692 90.3167 100.692 90.3167C100.692 90.3167 98.6453 88.1476 95.5085 89.751" stroke="black" stroke-width="1.11588"/>
<path d="M103.477 89.0552C103.477 89.0552 107.568 87.012 110.275 89.9569" stroke="black" stroke-width="1.11588"/>
<path d="M107.228 105.387L107.698 107.798C106.216 109.163 105.169 111.12 105.475 113.182C105.747 115.009 107.242 116.71 108.775 117.668C111.338 119.267 114.747 119.141 117.506 118.124C120.203 117.124 122.536 115.227 124.227 112.912C125.024 111.793 125.554 110.506 125.779 109.151V109.127" stroke="black" stroke-width="1.11588"/>
<path d="M107.698 107.798L108.613 112.152" stroke="black" stroke-width="1.11588"/>
<path d="M120.647 96.7122L122.03 105.898C122.312 107.757 123.911 109.13 125.791 109.127C130.096 109.825 134.344 110.843 138.497 112.174C154.725 117.408 164.713 132.026 167.534 148.359C168.707 155.199 168.795 162.372 167.322 169.173C166.484 173.002 165.273 177.302 162.46 180.169C158.807 183.907 153.202 182.368 148.885 180.679C135.485 175.467 124.339 166.194 114.715 155.579C109.569 149.901 102.92 145.351 102.92 145.351" stroke="black" stroke-width="1.11588"/>
<path d="M50.8803 171.278C49.3769 171.264 48.0674 170.051 47.7295 168.361C47.0618 165.039 46.8859 159.901 51.7579 158.779C57.8455 157.38 62.5276 164.009 64.8227 168.2C65.5944 169.599 64.7207 171.398 63.2833 171.398L50.8803 171.278Z" fill="#D7F0E9"/>
<ellipse cx="50.5943" cy="152.508" rx="2.81088" ry="4.14434" transform="rotate(-33.64 50.5943 152.508)" fill="#D7F0E9"/>
<path d="M152.934 185.79C152.84 185.804 152.734 185.818 152.642 185.84H152.606L138.385 185.766L117.048 185.657C116.966 185.657 116.886 185.657 116.806 185.657C116.648 185.653 116.489 185.641 116.332 185.621C119.317 185.274 121.62 182.832 121.792 179.833C121.796 179.758 121.796 179.682 121.792 179.607V179.491C121.78 176.561 119.713 174.041 116.842 173.455C116.696 173.419 116.536 173.397 116.382 173.375C116.624 173.353 116.864 173.337 117.098 173.337L135.125 173.433L138.443 173.447L142.92 173.469C146.096 173.759 148.53 176.418 148.539 179.607C148.54 179.897 148.518 180.188 148.473 180.475C148.033 183.503 145.444 185.753 142.384 185.766H153.216C152.592 185.766 152.766 185.766 152.934 185.79Z" fill="white"/>
<path d="M124.089 193.226C124.909 194.051 126.026 194.513 127.19 194.509H116.718C114.719 194.509 113.627 194.021 112.832 193.226C112.014 192.404 111.553 191.294 111.55 190.135C111.55 187.736 113.517 185.768 116.718 185.768H127.19C125.422 185.766 123.827 186.83 123.15 188.463C122.473 190.096 122.847 191.977 124.099 193.226H124.089Z" fill="#D7F0E9"/>
<path d="M158.673 179.717C158.671 180.64 158.456 181.551 158.046 182.378C157.753 183.003 157.35 183.571 156.858 184.055C156.046 184.86 155.027 185.422 153.913 185.681C153.454 185.786 152.985 185.84 152.514 185.84C152.61 185.818 152.714 185.804 152.806 185.79C152.638 185.774 152.464 185.769 153.09 185.769H142.256C145.318 185.757 147.91 183.505 148.349 180.475C148.394 180.188 148.416 179.897 148.415 179.607C148.406 176.417 145.97 173.758 142.794 173.469L148.641 173.499L152.548 173.521C155.946 173.55 158.683 176.318 158.673 179.717Z" fill="#08A075"/>
<path fill-rule="evenodd" clip-rule="evenodd" d="M158.673 179.715C158.648 183.116 155.877 185.856 152.476 185.842L116.906 185.659C116.668 185.659 116.43 185.641 116.19 185.617C119.294 185.265 121.643 182.648 121.66 179.524C121.676 176.401 119.354 173.76 116.254 173.375C116.492 173.351 116.731 173.338 116.97 173.339L152.54 173.523C155.94 173.547 158.682 176.314 158.673 179.715V179.715Z" stroke="black" stroke-width="1.11588" stroke-linecap="square" stroke-linejoin="round"/>
<path fill-rule="evenodd" clip-rule="evenodd" d="M148.411 179.605C148.405 183.005 145.65 185.76 142.25 185.767H116.942C116.703 185.765 116.464 185.752 116.226 185.727C119.327 185.358 121.663 182.729 121.663 179.606C121.663 176.483 119.327 173.854 116.226 173.485C116.464 173.463 116.704 173.447 116.942 173.447H142.25C145.648 173.455 148.401 176.207 148.411 179.605V179.605Z" stroke="black" stroke-width="1.11588" stroke-linecap="square" stroke-linejoin="round"/>
<path fill-rule="evenodd" clip-rule="evenodd" d="M111.55 190.137C111.55 191.295 112.01 192.405 112.83 193.224C113.629 194.023 114.715 194.509 116.716 194.509H153.087C152.462 194.509 152.632 194.497 152.802 194.481C150.599 194.222 148.939 192.355 148.939 190.137C148.939 187.919 150.599 186.052 152.802 185.792C152.632 185.776 152.462 185.764 153.087 185.764H116.716C113.513 185.766 111.55 187.734 111.55 190.137H111.55Z" stroke="black" stroke-width="1.11588" stroke-linecap="square" stroke-linejoin="round"/>
<path fill-rule="evenodd" clip-rule="evenodd" d="M122.805 190.137C122.811 192.549 124.765 194.504 127.178 194.509H152.294C152.462 194.509 152.631 194.497 152.801 194.481C150.599 194.222 148.938 192.355 148.938 190.137C148.938 187.919 150.599 186.052 152.801 185.792C152.631 185.776 152.462 185.764 152.294 185.764H127.178C124.766 185.771 122.812 187.725 122.805 190.137H122.805Z" stroke="black" stroke-width="1.11588" stroke-linecap="square" stroke-linejoin="round"/>
<path d="M82.0917 156.778H70.8722C69.8234 156.776 68.8746 156.155 68.4532 155.195C68.2913 154.839 68.323 154.425 68.5372 154.098C68.7513 153.771 69.118 153.577 69.5087 153.583H81.436C80.8742 154.529 81.1601 155.842 82.0917 156.778Z" fill="#D7F0E9"/>
<path d="M89.3468 155.623C89.3457 156.259 88.8299 156.775 88.1933 156.776H82.0917C81.1601 155.842 80.8742 154.529 81.436 153.577H86.8238C87.8713 153.578 88.8203 154.195 89.2449 155.153C89.3094 155.301 89.344 155.461 89.3468 155.623Z" fill="#08A075"/>
<path d="M86.5399 156.778C86.5083 156.839 86.4715 156.897 86.43 156.952C85.6303 158.046 83.893 158.152 82.5435 157.164C82.384 157.046 82.233 156.917 82.0917 156.778C81.1601 155.844 80.8742 154.531 81.436 153.579C81.4676 153.518 81.5044 153.46 81.5459 153.405C82.3456 152.304 84.0749 152.206 85.4244 153.186C85.5868 153.307 85.7399 153.441 85.8822 153.585C86.8058 154.515 87.0937 155.82 86.5399 156.778Z" fill="white"/>
<path d="M92.1678 162.666C92.1634 163.303 91.6455 163.817 91.0082 163.817H79.2349C79.8027 162.862 79.5188 161.558 78.5852 160.619H89.6448C90.694 160.619 91.6439 161.239 92.0658 162.2C92.1317 162.346 92.1664 162.505 92.1678 162.666Z" fill="#08A075"/>
<path d="M79.2349 163.817H73.6951C72.6473 163.818 71.6978 163.2 71.2741 162.242C71.2087 162.095 71.174 161.937 71.1721 161.776C71.1716 161.47 71.2927 161.177 71.5088 160.961C71.7249 160.745 72.0181 160.624 72.3237 160.625H78.5852C79.5188 161.558 79.8087 162.862 79.2349 163.817Z" fill="#D7F0E9"/>
<path d="M79.235 163.817C79.209 163.88 79.1747 163.939 79.133 163.993C78.3334 165.093 76.602 165.193 75.2546 164.211C75.0915 164.09 74.9378 163.956 74.7948 163.811C73.8691 162.878 73.5853 161.574 74.139 160.613C74.171 160.551 74.2078 160.492 74.249 160.437C75.0487 159.343 76.786 159.237 78.1334 160.227C78.2939 160.343 78.445 160.472 78.5853 160.613C79.5189 161.558 79.8088 162.862 79.235 163.817Z" fill="white"/>
<path d="M83.1574 170.808H76.1082C75.061 170.807 74.1125 170.19 73.6872 169.233C73.5259 168.876 73.558 168.462 73.7722 168.134C73.9865 167.807 74.3533 167.611 74.7447 167.616H82.5016C81.9459 168.573 82.2317 169.875 83.1574 170.808Z" fill="#08A075"/>
<path d="M94.5809 169.665C94.5776 170.298 94.0627 170.81 93.4294 170.808H83.1575C82.2318 169.875 81.946 168.571 82.5017 167.61H92.0579C93.1071 167.61 94.057 168.23 94.4789 169.191C94.5448 169.34 94.5795 169.502 94.5809 169.665Z" fill="#D7F0E9"/>
<path d="M87.6056 170.808C87.5736 170.87 87.5369 170.929 87.4957 170.984C86.696 172.084 84.9667 172.184 83.6172 171.202C83.4552 171.08 83.3022 170.947 83.1594 170.802C82.2338 169.869 81.9479 168.565 82.5037 167.604C82.5342 167.542 82.5704 167.483 82.6116 167.428C83.4113 166.334 85.1486 166.24 86.4981 167.218C86.6585 167.335 86.8096 167.464 86.9499 167.604C87.8815 168.549 88.1654 169.861 87.6056 170.808Z" fill="white"/>
<path d="M34.3489 107.072L34.5248 107.122L34.4589 107.378C34.4171 107.278 34.3804 107.176 34.3489 107.072Z" fill="#353642"/>
<ellipse cx="63.9592" cy="117.356" rx="4.96601" ry="5.95162" transform="rotate(-16.36 63.9592 117.356)" fill="#D7F0E9"/>
</svg>
