<svg width="20" height="20" viewBox="0 0 20 20" fill="none" xmlns="http://www.w3.org/2000/svg">
<path d="M17.499 15.8316H2.50086C2.49973 14.7764 2.72186 13.7328 3.15268 12.7695C3.5835 11.8062 4.21324 10.9449 5.00055 10.2423V6.66607C5.00055 5.34015 5.52727 4.06854 6.46484 3.13097C7.40241 2.19341 8.67402 1.66669 9.99994 1.66669C11.3259 1.66669 12.5975 2.19341 13.535 3.13097C14.4726 4.06854 14.9993 5.34015 14.9993 6.66607V10.2423C15.7866 10.9449 16.4164 11.8062 16.8472 12.7695C17.278 13.7328 17.5002 14.7764 17.499 15.8316ZM7.6419 16.6649H12.358C12.1858 17.1527 11.8666 17.5752 11.4443 17.874C11.0219 18.1729 10.5173 18.3334 9.99994 18.3334C9.48257 18.3334 8.97795 18.1729 8.55562 17.874C8.13328 17.5752 7.81404 17.1527 7.6419 16.6649Z" fill="#00122C"/>
</svg>
