<svg width="16" height="16" viewBox="0 0 16 16" fill="none" xmlns="http://www.w3.org/2000/svg">
<path d="M10.3245 3.87668H3.2231C2.88587 3.87668 2.56246 3.74272 2.324 3.50426C2.08555 3.26581 1.95159 2.94239 1.95159 2.60517C1.95159 2.26794 2.08555 1.94453 2.324 1.70607C2.56246 1.46762 2.88587 1.33365 3.2231 1.33365H13.3952C13.5623 1.33315 13.7279 1.3657 13.8824 1.42942C14.0369 1.49314 14.1772 1.58678 14.2954 1.70495C14.4136 1.82312 14.5072 1.96349 14.5709 2.11798C14.6347 2.27248 14.6672 2.43805 14.6667 2.60517V12.7773C14.6667 13.1145 14.5327 13.4379 14.2943 13.6764C14.0558 13.9148 13.7324 14.0488 13.3952 14.0488C13.058 14.0488 12.7346 13.9148 12.4961 13.6764C12.2576 13.4379 12.1237 13.1145 12.1237 12.7773V5.67459L3.5041 14.2942C3.26551 14.5326 2.94199 14.6665 2.60469 14.6663C2.2674 14.6662 1.94397 14.5321 1.70555 14.2935C1.46713 14.0549 1.33325 13.7314 1.33337 13.3941C1.33349 13.0568 1.4676 12.7334 1.70618 12.495L10.3245 3.87668Z" fill="#1B98E0"/>
</svg>
