<svg width="14" height="14" viewBox="0 0 14 14" fill="none" xmlns="http://www.w3.org/2000/svg">
<path d="M6.19281 10.5871C6.76989 10.5871 7.34131 10.4734 7.87445 10.2526C8.4076 10.0318 8.89202 9.70809 9.30007 9.30004C9.70812 8.89199 10.0318 8.40757 10.2526 7.87442C10.4735 7.34128 10.5871 6.76986 10.5871 6.19278C10.5871 5.61571 10.4735 5.04429 10.2526 4.51115C10.0318 3.978 9.70812 3.49358 9.30007 3.08553C8.89202 2.67747 8.4076 2.35379 7.87445 2.13296C7.34131 1.91212 6.76989 1.79846 6.19281 1.79846C5.02737 1.79846 3.90965 2.26143 3.08556 3.08553C2.26146 3.90962 1.79849 5.02734 1.79849 6.19278C1.79849 7.35823 2.26146 8.47595 3.08556 9.30004C3.90965 10.1241 5.02737 10.5871 6.19281 10.5871ZM10.8215 9.78588L13.4435 12.4078C13.5134 12.4754 13.5691 12.5563 13.6074 12.6457C13.6457 12.7351 13.6659 12.8312 13.6666 12.9284C13.6674 13.0257 13.6488 13.1221 13.6119 13.2121C13.575 13.3021 13.5206 13.3838 13.4518 13.4525C13.383 13.5212 13.3012 13.5755 13.2111 13.6123C13.1211 13.6491 13.0246 13.6675 12.9274 13.6666C12.8302 13.6657 12.7341 13.6454 12.6447 13.607C12.5554 13.5685 12.4746 13.5127 12.4071 13.4427L9.78518 10.8207C8.60783 11.7347 7.12646 12.1655 5.64261 12.0257C4.15876 11.8858 2.78399 11.1857 1.79816 10.0679C0.812325 8.95008 0.289538 7.49859 0.336221 6.0089C0.382904 4.51921 0.995548 3.1033 2.04944 2.04941C3.10333 0.995518 4.51924 0.382874 6.00893 0.336191C7.49862 0.289507 8.95011 0.812295 10.0679 1.79813C11.1857 2.78396 11.8858 4.15873 12.0257 5.64258C12.1656 7.12643 11.7347 8.60781 10.8208 9.78515L10.8215 9.78588Z" fill="#7F8895"/>
</svg>
