<svg width="264" height="264" viewBox="0 0 264 264" fill="none" xmlns="http://www.w3.org/2000/svg">
<path d="M140.587 78.9624C140.934 78.8718 141.288 78.7709 141.622 78.67C147.572 76.9314 153.432 73.9872 157.523 69.2397C161.523 64.6112 164.146 58.8909 168.684 54.7074C174.04 49.7703 181.465 47.75 188.585 49.2924C192.269 50.0589 195.854 51.2465 199.267 52.8316C204.706 55.3321 209.572 58.9242 213.564 63.3848C220.143 70.7014 224.172 80.0516 225.902 90.0744C226.275 92.2701 226.539 94.4933 226.694 96.7442C226.931 100.161 226.923 103.59 226.668 107.005C226.138 114.144 224.578 121.169 222.035 127.86C220.288 132.416 218.243 136.851 215.913 141.138C214.754 143.27 213.543 145.384 212.276 147.453" stroke="#CCE2DC" stroke-width="1.39392"/>
<path fill-rule="evenodd" clip-rule="evenodd" d="M226.692 96.7338C218.816 94.25 212.289 88.6705 208.61 81.2773C204.931 73.8842 204.416 65.3128 207.184 57.5325C209.495 59.2676 211.631 61.2242 213.562 63.3744C220.141 70.691 224.169 80.0412 225.9 90.064C226.269 92.2614 226.533 94.4846 226.692 96.7338V96.7338Z" stroke="#CCE2DC" stroke-width="1.39392"/>
<path d="M59.8456 114.702C59.8456 114.702 20.9651 148.398 44.9666 187.581C49.577 195.107 53.1473 201.35 55.9001 206.517C56.0734 206.835 56.2364 207.145 56.402 207.453C67.4002 228.311 64.7017 230.997 64.7017 230.997" stroke="#CCE2DC" stroke-width="1.39392"/>
<path d="M119.765 81.0321C114.907 80.8159 110.068 80.2923 105.277 79.4643" stroke="#CCE2DC" stroke-width="1.39392"/>
<path d="M105.269 224.011V229.703C105.267 230.323 104.829 230.856 104.221 230.979C104.136 230.999 104.049 231.008 103.962 231.007H64.7017" stroke="#CCE2DC" stroke-width="1.39392"/>
<path d="M105.269 197.441V163.015C105.273 162.201 104.952 161.419 104.378 160.842C103.803 160.265 103.023 159.941 102.208 159.942H57.1911C56.8448 159.942 56.513 160.08 56.2699 160.327C56.0268 160.574 55.8926 160.907 55.8975 161.253V206.511" stroke="#CCE2DC" stroke-width="1.39392"/>
<path d="M105.259 197.459V183.498H55.9002V206.514" stroke="#CCE2DC" stroke-width="1.39392"/>
<path d="M99.2175 207.453H56.4019" stroke="#CCE2DC" stroke-width="1.39392"/>
<circle cx="80.5821" cy="195.474" r="3.59621" stroke="#CCE2DC" stroke-width="1.39392"/>
<circle cx="80.5821" cy="172.487" r="3.59621" stroke="#CCE2DC" stroke-width="1.39392"/>
<circle cx="80.5821" cy="219.711" r="3.59621" stroke="#CCE2DC" stroke-width="1.39392"/>
<path d="M128.267 159.952H102.208H57.2041H51.6442V154.951H130.647" stroke="#CCE2DC" stroke-width="1.39392"/>
<path fill-rule="evenodd" clip-rule="evenodd" d="M94.8684 140.292L92.5399 153.298C92.4026 154.047 91.7495 154.591 90.9876 154.591H78.8278C78.0565 154.59 77.3996 154.031 77.2755 153.269L75.1307 140.284L94.8684 140.292Z" stroke="#CCE2DC" stroke-width="1.39392"/>
<path fill-rule="evenodd" clip-rule="evenodd" d="M97.0728 138.84C97.008 139.661 96.3227 140.293 95.4998 140.292H74.5305C73.7163 140.293 73.0349 139.674 72.9575 138.864C72.9153 138.421 73.0619 137.98 73.3613 137.651C73.6608 137.321 74.0853 137.133 74.5305 137.133H95.505C95.9451 137.134 96.3647 137.32 96.6624 137.644C96.9601 137.968 97.1089 138.402 97.0728 138.84V138.84Z" stroke="#CCE2DC" stroke-width="1.39392"/>
<path d="M85.6735 137.133C85.6735 136.468 87.3681 128.166 85.9633 120.805C85.1871 116.769 83.4899 113.015 80.0645 110.961" stroke="#CCE2DC" stroke-width="1.39392"/>
<path d="M85.9634 120.805C85.9634 120.805 86.3515 115.214 91.1844 114.829" stroke="#CCE2DC" stroke-width="1.39392"/>
<path d="M86.4654 129.338C87.8413 128.376 89.4974 127.898 91.1741 127.979" stroke="#CCE2DC" stroke-width="1.39392"/>
<path d="M86.4654 125.369C86.4654 125.369 82.9649 121.211 77.3585 124.497" stroke="#CCE2DC" stroke-width="1.39392"/>
<path fill-rule="evenodd" clip-rule="evenodd" d="M84.005 123.695C84.005 123.695 76.1011 116.477 74.5643 126.238C74.5643 126.238 76.7867 127.69 80.075 126.238C83.3633 124.787 84.005 123.695 84.005 123.695Z" stroke="#CCE2DC" stroke-width="1.39392"/>
<path fill-rule="evenodd" clip-rule="evenodd" d="M87.702 116.531C87.702 116.531 87.4148 113.282 91.1844 112.218C94.9539 111.155 97.0728 115.602 97.0728 115.602C97.0728 115.602 94.1777 118.805 87.702 116.531V116.531Z" stroke="#CCE2DC" stroke-width="1.39392"/>
<path d="M88.5739 127.974C88.5739 127.974 88.4446 124.691 92.8299 125.369C97.2152 126.047 97.9215 129.785 97.9215 129.785C97.9215 129.785 90.742 132.419 88.5739 128.321" stroke="#CCE2DC" stroke-width="1.39392"/>
<path fill-rule="evenodd" clip-rule="evenodd" d="M83.2932 114.001C83.2932 114.234 79.9945 113.706 79.7876 113.644C78.1887 113.168 77.0555 112.06 76.3104 110.599C76.0801 110.146 74.7581 107.6 75.128 107.158C75.128 107.163 82.9698 104.635 83.2932 114.001Z" stroke="#CCE2DC" stroke-width="1.39392"/>
<path d="M151.701 117.721C151.701 117.721 156.723 135.671 147.383 142.38C147.497 142.934 156.294 141.862 156.294 141.862L155.802 151.539C155.802 151.539 165.954 155.487 170.673 155.531C175.392 155.575 180.086 151.05 181.24 148.744C182.393 146.439 202.752 150.092 200.975 165.194C200.975 165.194 187.997 178.787 173.667 174.528C173.667 174.528 163.89 170.668 167.763 175.196C171.636 179.723 193.855 195.451 196.421 226.712C196.421 226.712 214.984 215.497 215.926 180.981C216.868 146.465 206.925 132.29 196.747 121.496C196.747 121.496 189.04 116.084 187.847 117.721C186.655 119.359 178.849 125.713 176.259 125.273C173.669 124.833 169.791 125.015 171.005 121.972C172.218 118.929 173.167 120.324 172.728 118.042C172.288 115.76 172.187 115.499 169.481 115.76C166.774 116.021 151.701 117.721 151.701 117.721V117.721Z" fill="#2E2E2E"/>
<path d="M107.352 224.014C105.023 226.283 102.648 228.624 100.299 230.999H76.4605C75.1806 231.049 73.9763 230.394 73.3217 229.293C72.6671 228.192 72.6671 226.821 73.3217 225.72C73.9763 224.619 75.1806 223.965 76.4605 224.014H107.352Z" fill="#08A075"/>
<path d="M199.308 96.8814C199.303 97.4816 199.265 98.0811 199.192 98.6769V98.695L198.043 102.641V102.669C195.521 108.071 189.842 110.55 186.872 111.517C186.252 111.722 185.623 111.894 184.986 112.035C184.194 109.484 184.494 106.987 186.052 104.754C186.735 103.781 187.738 103.06 188.313 102.022C188.859 101.047 188.913 99.88 188.093 99.0521C187.822 98.7766 187.504 98.5515 187.154 98.3872C186.549 98.0708 185.832 98.0536 185.213 98.3406C185.097 98.4053 184.986 98.4596 184.877 98.5139C183.583 97.611 184.476 96.2993 184.877 95.179C184.926 95.0448 184.966 94.9074 184.996 94.7677C184.995 94.7556 184.995 94.7435 184.996 94.7314C185.115 94.3485 185.99 91.143 183.721 88.3255C183.536 88.0995 183.374 87.856 183.237 87.5985C182.774 86.7341 182.717 85.7094 183.082 84.7992C183.419 83.9873 183.944 83.2666 184.613 82.6958V82.6958C185.296 82.094 186.137 81.7015 187.037 81.5652C191.009 82.1033 195.21 85.4279 195.485 85.6555C195.49 85.658 195.497 85.658 195.503 85.6555C197.779 88.2764 199.355 91.9528 199.308 96.8814V96.8814Z" fill="#08A075"/>
<path d="M195.495 85.6374C195.102 85.3192 186.939 78.8486 182.601 82.6777C180.686 83.0023 178.837 83.6358 177.126 84.5534H176.979C176.979 84.5534 178.319 79.9611 183.832 80.0154C187.12 80.062 192.088 81.6738 195.495 85.6374Z" fill="#08A075"/>
<path d="M208.348 106.459C207.673 110.187 204.566 113.429 204.703 117.248C204.832 120.87 206.426 124.383 206.817 128C206.954 129.276 206.91 131.364 206.646 133.633V133.731C204.385 129.54 198.664 123.744 196.157 121.312C196.56 120.458 197.032 119.638 197.57 118.862C199.203 116.534 200.695 114.161 201.725 111.509C202.4 109.823 203.347 107.344 202.501 105.559C202.362 105.248 202.153 104.974 201.891 104.757C201.852 104.391 201.753 104.035 201.598 103.701C201.306 102.992 200.624 102.521 199.857 102.498C199.288 102.464 198.718 102.544 198.181 102.734V102.69V102.661C198.77 101.415 199.157 100.083 199.329 98.7157V98.6976C200.558 97.5489 202.783 96.2915 205.854 97.8335C207.148 98.4803 207.885 99.6187 208.258 100.938C208.786 102.705 208.648 104.809 208.348 106.459Z" fill="#08A075"/>
<path d="M186.934 197.361C180.083 187.237 172.146 178.526 164.557 171.382C162.689 169.634 160.847 167.962 159.044 166.41C155.336 163.184 151.8 160.377 148.649 158.007C143.067 153.804 135.336 153.963 129.93 158.39C128.571 159.487 127.418 160.817 126.523 162.317L89.2077 224.014H76.4605C75.1806 223.965 73.9763 224.619 73.3217 225.72C72.6671 226.821 72.6671 228.192 73.3217 229.293C73.9763 230.394 75.1806 231.049 76.4605 230.999H100.299C102.648 228.622 105.018 226.28 107.352 224.014C121.323 210.418 134.44 199.12 139.508 194.828" stroke="black" stroke-width="1.39392"/>
<path d="M155.802 151.539C155.294 143.3 157.108 135.085 161.039 127.827" stroke="black" stroke-width="1.39392"/>
<path d="M183.977 141.622C179.118 161.825 163.163 154.105 163.163 154.105L156.987 151.947L142.998 147.073C140.747 146.069 138.083 146.134 136.028 147.471C134.217 148.638 130.078 153.533 129.933 158.379" stroke="black" stroke-width="1.39392"/>
<path d="M137.047 188.248C137.843 190.565 138.663 192.758 139.508 194.828C158.508 241.291 191.42 229.708 191.42 229.708C220.505 215.595 221.432 162.317 206.491 133.723C206.41 133.55 206.317 133.387 206.232 133.206C203.445 127.995 199.764 123.219 194.796 120.122C193.383 119.243 191.88 118.515 190.313 117.952C189.412 117.632 188.48 117.35 187.516 117.106" stroke="black" stroke-width="1.39392"/>
<path d="M140.631 119.946C147.272 118.205 154.084 117.294 160.94 116.547C164.384 116.174 168.293 115.835 172.285 115.755" stroke="black" stroke-width="1.39392"/>
<path d="M131.826 86.0669C131.826 86.0669 130.608 78.9987 133.601 76.3675C134.934 75.1981 135.169 73.6742 135.464 72.0288C135.865 69.796 138.23 68.8517 139.684 70.8361C140.996 72.6264 140.556 75.8734 140.556 77.9302" stroke="black" stroke-width="1.39392"/>
<path d="M132.473 77.9121C132.473 77.9121 129.076 78.0207 129.594 70.6679V70.6498C129.682 69.4881 130.546 67.6228 131.687 67.3977L132.572 67.2243C133.937 66.953 134.922 65.7553 134.923 64.3629V56.1744C134.923 54.8109 135.837 53.5562 137.172 53.2923C138.001 53.1249 138.861 53.3378 139.516 53.8725C140.171 54.4072 140.551 55.2073 140.553 56.0528L140.628 123.098" stroke="black" stroke-width="1.39392"/>
<path d="M131.581 81.7488C125.604 82.4577 125.149 75.0221 125.229 71.7597C125.229 71.7416 125.229 71.7338 125.229 71.7234" stroke="black" stroke-width="1.39392"/>
<path d="M121.558 75.0325C121.558 75.0325 120.841 84.5792 126.838 79.6351" stroke="black" stroke-width="1.39392"/>
<path d="M187.009 247.296C186.479 247.954 185.697 248.359 184.854 248.414C184.011 248.469 183.184 248.169 182.572 247.586C182.122 247.192 181.633 246.846 181.113 246.551C184.093 237.146 174.526 230.697 174.27 230.531C175.581 230.997 176.831 231.442 177.995 231.879C178.858 232.2 179.678 232.507 180.456 232.8C183.253 233.866 185.518 235.99 186.761 238.714C187.775 240.921 188.74 245.237 187.009 247.296V247.296Z" fill="#08A075"/>
<path d="M206.227 133.221C213.186 143.099 207.996 156.876 200.985 165.194C191.441 176.518 177.62 177.703 164.557 171.382" stroke="black" stroke-width="1.39392"/>
<path d="M188.287 117.721C186.973 115.783 185.454 113.582 184.973 112.029C184.181 109.481 184.481 106.984 186.044 104.749C186.724 103.776 187.723 103.054 188.305 102.012C188.851 101.036 188.903 99.8721 188.083 99.0416C187.371 98.3198 186.217 97.8334 185.203 98.3327C184.339 98.757 183.876 99.2253 182.875 98.532C181.384 97.4971 182.717 95.9448 182.957 94.7521C182.999 94.5554 183.04 94.3588 183.092 94.1544" stroke="black" stroke-width="1.39392"/>
<path d="M170.684 107.525L173.167 120.311L173.677 122.947" stroke="black" stroke-width="1.39392"/>
<path d="M172.984 119.338C170.914 121.351 169.046 124.187 173.597 125.113C179.672 126.35 186.256 119.905 188.287 117.721" stroke="black" stroke-width="1.39392"/>
<path d="M176.96 84.5585C176.96 84.5585 178.301 79.974 183.809 80.0257C189.317 80.0774 199.428 84.5145 199.314 96.8839C199.2 109.253 184.968 112.035 184.968 112.035" stroke="black" stroke-width="1.39392"/>
<path d="M156.578 34.4108C156.576 41.5683 152.516 48.1057 146.101 51.2807C139.687 54.4557 132.026 53.7193 126.334 49.3804C119.88 42.1399 119.985 31.1804 126.577 24.065C133.169 16.9497 144.088 16.0086 151.8 21.8914C154.883 25.3316 156.586 29.7909 156.578 34.4108V34.4108Z" fill="#08A075"/>
<path d="M195.513 85.6504C195.513 85.6504 187.04 78.7555 182.598 82.6751C182.598 82.6751 179.276 85.327 181.69 88.3229C184.104 91.3189 182.952 94.7702 182.952 94.7702" stroke="black" stroke-width="1.056"/>
<path d="M198.026 102.716C199.138 102.351 200.732 102.149 201.443 103.681C202.292 105.476 201.342 107.955 200.667 109.631C199.632 112.283 198.142 114.661 196.512 116.987C195.83 117.972 195.252 119.025 194.789 120.13" stroke="black" stroke-width="1.056"/>
<path d="M206.491 133.731C206.491 133.695 206.491 133.669 206.491 133.633C206.749 131.364 206.801 129.276 206.664 128C206.271 124.378 204.677 120.875 204.55 117.248C204.413 113.429 207.52 110.187 208.193 106.459C208.71 103.598 208.76 99.334 205.707 97.8128C202.654 96.2915 200.413 97.5308 199.182 98.6769" stroke="black" stroke-width="1.056"/>
<path d="M175.571 107.73C173.843 107.968 172.099 108.019 170.684 107.525C167.916 106.545 166.392 103.448 168.687 95.3808C171.553 85.3037 179.791 83.1382 182.577 82.7036C182.366 82.6945 182.156 82.7334 181.962 82.8174" stroke="black" stroke-width="1.056"/>
<ellipse cx="175.463" cy="90.5165" rx="4.60263" ry="1.55749" transform="rotate(-47.48 175.463 90.5165)" stroke="black" stroke-width="1.056"/>
<path d="M182.833 95.179C180.843 93.9014 178.951 92.4752 177.175 90.9127" stroke="black" stroke-width="1.056"/>
<path d="M107.761 223.375C107.197 227.147 109.393 234.264 133.193 235.669C161.631 237.346 176.399 243.658 181.113 246.535C181.633 246.829 182.121 247.176 182.57 247.57C183.182 248.153 184.01 248.454 184.853 248.399C185.696 248.344 186.478 247.938 187.009 247.281C188.74 245.211 187.785 240.893 186.751 238.696C185.508 235.972 183.242 233.847 180.443 232.782C179.669 232.489 178.848 232.182 177.983 231.861C176.818 231.424 175.569 230.979 174.257 230.513C170.788 229.274 166.868 227.926 162.767 226.632C159.104 225.483 155.306 224.363 151.559 223.388C151.205 223.297 150.869 223.204 150.525 223.129C145.813 221.934 141.211 220.997 137.164 220.524" stroke="black" stroke-width="1.056"/>
<path d="M151.557 223.403C153.626 222.825 155.738 222.41 157.872 222.164" stroke="black" stroke-width="1.056"/>
<path d="M125.235 73.2939C125.18 72.7402 125.103 72.0443 124.774 71.5786C124.319 70.9292 123.605 71.6459 123.279 72.0572C121.488 74.3107 120.756 77.2032 120.032 79.9327C119.369 82.4382 118.88 84.9867 118.57 87.5597C117.967 92.4754 117.967 97.4583 117.923 102.413C117.831 107.951 118.08 113.489 118.671 118.997C119.625 128.347 123.025 137.723 132.856 140.628C140.002 142.752 148.38 142.652 156.294 141.85" stroke="black" stroke-width="1.056"/>
<path d="M125.211 72.2719C125.158 71.0009 125.907 69.8328 127.084 69.351C128.143 68.9551 129.617 69.2449 129.586 70.6187C129.588 70.6351 129.588 70.6515 129.586 70.6679" stroke="black" stroke-width="1.056"/>
<circle cx="137.733" cy="34.4056" r="18.8296" stroke="black" stroke-width="1.056"/>
<path d="M58.327 230.991H112.265" stroke="black" stroke-width="1.056"/>
<path d="M177.995 231.879H213.562" stroke="black" stroke-width="1.056"/>
<path d="M160.009 33.0447C161.122 33.9373 161.74 34.9308 161.74 35.9605C161.74 37.1998 160.858 38.364 159.28 39.4041" stroke="black" stroke-width="1.056"/>
<path d="M147.161 43.122C146.149 43.2591 145.091 43.3807 144.028 43.4687" stroke="black" stroke-width="1.056"/>
<path d="M133.146 43.5773C134.699 43.6782 136.29 43.7325 137.922 43.7325C139.143 43.7325 140.346 43.7041 141.521 43.642" stroke="black" stroke-width="1.056"/>
<path d="M115.232 33.5907C114.513 34.3461 114.12 35.143 114.12 35.9605C114.12 37.4896 115.478 38.9022 117.812 40.1156C120.572 41.5463 124.727 42.6562 129.656 43.2487" stroke="black" stroke-width="1.056"/>
<path fill-rule="evenodd" clip-rule="evenodd" d="M84.6001 68.3212C98.2715 68.3212 109.354 79.4041 109.354 93.0756V133.35H59.8458V93.0756C59.8458 79.4041 70.9287 68.3212 84.6001 68.3212V68.3212Z" stroke="#CCE2DC" stroke-width="1.056"/>
<path d="M84.0206 123.695H84.0024" stroke="#CCE2DC" stroke-width="1.056"/>
<path d="M75.237 123.695H67.1985V95.3859C67.1985 85.7739 74.9906 77.9818 84.6026 77.9818C94.2147 77.9818 102.007 85.7739 102.007 95.3859V123.695H86.3516" stroke="#CCE2DC" stroke-width="1.056"/>
</svg>
