<svg width="14" height="14" viewBox="0 0 14 14" fill="none" xmlns="http://www.w3.org/2000/svg">
<path d="M4.33331 1.66665H2.33331C2.1565 1.66665 1.98693 1.73688 1.86191 1.86191C1.73689 1.98693 1.66665 2.1565 1.66665 2.33331V3.66665C1.66665 3.84346 1.73689 4.01303 1.86191 4.13805C1.98693 4.26308 2.1565 4.33331 2.33331 4.33331H3.66665C3.84346 4.33331 4.01303 4.26308 4.13805 4.13805C4.26308 4.01303 4.33331 3.84346 4.33331 3.66665V1.66665ZM2.33998 5.66665V12.31H3.66665V8.99998C3.66665 8.64636 3.80712 8.30722 4.05717 8.05717C4.30722 7.80712 4.64636 7.66665 4.99998 7.66665H6.33331C6.68694 7.66665 7.02608 7.80712 7.27612 8.05717C7.52617 8.30722 7.66665 8.64636 7.66665 8.99998V12.31H11.6753V5.66665H10.3333C9.82131 5.66665 9.35332 5.47398 8.99998 5.15731C8.63367 5.4859 8.15874 5.66733 7.66665 5.66665H6.33331C5.82132 5.66665 5.35331 5.47398 4.99998 5.15731C4.63367 5.4859 4.15874 5.66733 3.66665 5.66665H2.33998ZM1.00665 5.16398C0.794629 4.97644 0.624938 4.74593 0.508847 4.48777C0.392755 4.22961 0.33292 3.94971 0.333315 3.66665V2.33331C0.333315 1.80288 0.544029 1.29417 0.919101 0.919099C1.29417 0.544027 1.80288 0.333313 2.33331 0.333313L11.6666 0.333313C12.1971 0.333313 12.7058 0.544027 13.0809 0.919099C13.4559 1.29417 13.6666 1.80288 13.6666 2.33331V3.66665C13.6666 4.25465 13.4133 4.78398 13.0086 5.14998V12.31C13.0086 12.6636 12.8682 13.0027 12.6181 13.2528C12.3681 13.5028 12.0289 13.6433 11.6753 13.6433H6.58198C6.5 13.6588 6.41675 13.6666 6.33331 13.6666H4.99998C4.91655 13.6666 4.8333 13.6588 4.75132 13.6433H2.34065C1.98703 13.6433 1.64789 13.5028 1.39784 13.2528C1.14779 13.0027 1.00731 12.6636 1.00731 12.31V5.16331L1.00665 5.16398ZM6.33331 12.3106V8.99998H4.99998V12.31H6.33331V12.3106ZM8.33331 1.66665H5.66665V3.66665C5.66665 3.84346 5.73689 4.01303 5.86191 4.13805C5.98694 4.26308 6.1565 4.33331 6.33331 4.33331H7.66665C7.84346 4.33331 8.01303 4.26308 8.13805 4.13805C8.26308 4.01303 8.33331 3.84346 8.33331 3.66665V1.66665ZM9.66665 1.66665V3.66665C9.66665 3.84346 9.73689 4.01303 9.86191 4.13805C9.98693 4.26308 10.1565 4.33331 10.3333 4.33331H11.6666C11.8435 4.33331 12.013 4.26308 12.1381 4.13805C12.2631 4.01303 12.3333 3.84346 12.3333 3.66665V2.33331C12.3333 2.1565 12.2631 1.98693 12.1381 1.86191C12.013 1.73688 11.8435 1.66665 11.6666 1.66665H9.66665ZM9.66665 7.66665H10.3333C10.5101 7.66665 10.6797 7.73688 10.8047 7.86191C10.9297 7.98693 11 8.1565 11 8.33331V10.3333C11 10.5101 10.9297 10.6797 10.8047 10.8047C10.6797 10.9297 10.5101 11 10.3333 11H9.66665C9.48984 11 9.32027 10.9297 9.19524 10.8047C9.07022 10.6797 8.99998 10.5101 8.99998 10.3333V8.33331C8.99998 8.1565 9.07022 7.98693 9.19524 7.86191C9.32027 7.73688 9.48984 7.66665 9.66665 7.66665Z" fill="#007554"/>
</svg>
