<svg width="14" height="14" viewBox="0 0 14 14" fill="none" xmlns="http://www.w3.org/2000/svg">
<path d="M2.99998 0.333313H11C11.7072 0.333313 12.3855 0.614265 12.8856 1.11436C13.3857 1.61446 13.6666 2.29274 13.6666 2.99998V11C13.6666 11.7072 13.3857 12.3855 12.8856 12.8856C12.3855 13.3857 11.7072 13.6666 11 13.6666H2.99998C2.29274 13.6666 1.61446 13.3857 1.11436 12.8856C0.614265 12.3855 0.333313 11.7072 0.333313 11V2.99998C0.333313 2.29274 0.614265 1.61446 1.11436 1.11436C1.61446 0.614265 2.29274 0.333313 2.99998 0.333313V0.333313ZM2.99998 1.66665C2.64636 1.66665 2.30722 1.80712 2.05717 2.05717C1.80712 2.30722 1.66665 2.64636 1.66665 2.99998V11C1.66665 11.3536 1.80712 11.6927 2.05717 11.9428C2.30722 12.1928 2.64636 12.3333 2.99998 12.3333H11C11.3536 12.3333 11.6927 12.1928 11.9428 11.9428C12.1928 11.6927 12.3333 11.3536 12.3333 11V2.99998C12.3333 2.64636 12.1928 2.30722 11.9428 2.05717C11.6927 1.80712 11.3536 1.66665 11 1.66665H2.99998ZM3.81931 12.3333H2.99998C2.81328 12.3335 2.62863 12.2944 2.45798 12.2186C2.60768 11.6555 2.8876 11.1353 3.27518 10.7002C3.66276 10.265 4.14715 9.92696 4.68931 9.71331C4.77128 9.67834 4.85942 9.66016 4.94853 9.65983C5.03764 9.65951 5.12592 9.67706 5.20813 9.71144C5.29035 9.74581 5.36483 9.79633 5.42719 9.85999C5.48955 9.92365 5.53851 9.99916 5.57119 10.0821C5.60386 10.165 5.61958 10.2536 5.61741 10.3427C5.61525 10.4318 5.59525 10.5195 5.55859 10.6007C5.52193 10.682 5.46937 10.755 5.40399 10.8156C5.33862 10.8761 5.26177 10.923 5.17798 10.9533C4.86763 11.0756 4.58637 11.2616 4.35234 11.4993C4.11832 11.737 3.93674 12.0211 3.81931 12.3333ZM10.1606 12.3333C10.0357 12.0194 9.84697 11.7349 9.60631 11.4978C9.36566 11.2607 9.07836 11.0762 8.76265 10.956C8.67834 10.9267 8.60077 10.8808 8.53452 10.821C8.46828 10.7613 8.41471 10.6888 8.377 10.6079C8.33928 10.527 8.31819 10.4394 8.31498 10.3502C8.31176 10.261 8.32648 10.1721 8.35826 10.0887C8.39004 10.0053 8.43824 9.92917 8.50001 9.86476C8.56177 9.80035 8.63583 9.74899 8.71781 9.71373C8.79979 9.67847 8.88801 9.66003 8.97725 9.6595C9.06649 9.65897 9.15492 9.67636 9.23731 9.71065C9.78934 9.92094 10.2843 10.2579 10.6823 10.6945C11.0802 11.131 11.3702 11.6549 11.5286 12.224C11.3618 12.2962 11.1818 12.3334 11 12.3333H10.16H10.1606ZM6.99998 2.99998C7.70722 2.99998 8.3855 3.28093 8.8856 3.78103C9.3857 4.28113 9.66665 4.9594 9.66665 5.66665V6.99998C9.66665 7.70722 9.3857 8.3855 8.8856 8.8856C8.3855 9.3857 7.70722 9.66665 6.99998 9.66665C6.29274 9.66665 5.61446 9.3857 5.11436 8.8856C4.61426 8.3855 4.33331 7.70722 4.33331 6.99998V5.66665C4.33331 4.9594 4.61426 4.28113 5.11436 3.78103C5.61446 3.28093 6.29274 2.99998 6.99998 2.99998ZM6.99998 4.33331C6.64636 4.33331 6.30722 4.47379 6.05717 4.72384C5.80712 4.97389 5.66665 5.31302 5.66665 5.66665V6.99998C5.66665 7.3536 5.80712 7.69274 6.05717 7.94279C6.30722 8.19284 6.64636 8.33331 6.99998 8.33331C7.3536 8.33331 7.69274 8.19284 7.94279 7.94279C8.19284 7.69274 8.33331 7.3536 8.33331 6.99998V5.66665C8.33331 5.31302 8.19284 4.97389 7.94279 4.72384C7.69274 4.47379 7.3536 4.33331 6.99998 4.33331Z" fill="#007554"/>
</svg>
